<svg xmlns="http://www.w3.org/2000/svg" width="1000" height="500" viewBox="0 0 1000 500"><rect width="1000" height="500" rx="24" fill="#0d1117"/><rect x="1" y="1" width="998" height="498" rx="24" fill="none" stroke="#30363d"/><text x="48" y="62" fill="#f0f6fc" font-family="Inter,Segoe UI,Arial" font-size="30" font-weight="700">OSS Atlas · Contribution State</text><text x="48" y="94" fill="#8b949e" font-family="Inter,Segoe UI,Arial" font-size="16">31 tracked external PRs</text><g font-family="Inter,Segoe UI,Arial" font-size="15" fill="#f0f6fc"><text x="48" y="163">Merged upstream</text><rect x="48" y="175" width="760" height="22" rx="11" fill="#21262d"/><rect x="48" y="175" width="760" height="22" rx="11" fill="#3fb950"/><text x="835" y="193">5</text><text x="48" y="241">Open upstream</text><rect x="48" y="253" width="760" height="22" rx="11" fill="#21262d"/><rect x="48" y="253" width="760" height="22" rx="11" fill="#70a5fd"/><text x="835" y="271">17</text><text x="48" y="319">Open fork-side</text><rect x="48" y="331" width="760" height="22" rx="11" fill="#21262d"/><rect x="48" y="331" width="760" height="22" rx="11" fill="#bc8cff"/><text x="835" y="349">4</text><text x="48" y="397">Closed</text><rect x="48" y="409" width="760" height="22" rx="11" fill="#21262d"/><rect x="48" y="409" width="760" height="22" rx="11" fill="#d29922"/><text x="835" y="427">5</text></g></svg>